<svg width="200" height="18" viewBox="0 0 680 64" fill="none" xmlns="http://www.w3.org/2000/svg">
<g clip-path="url(#clip0_210_1540)">
<path d="M38.7 26.2V3H45.1V60.2H38.7V32.1H9.4V60.2H3V3H9.4V26.2H38.7Z" fill="#231815"/>
<path d="M77.9996 43.9L71.0996 60.0999H64.0996L90.4996 0.199951L116.2 60.2H109.1L102.3 44H77.8996L77.9996 43.9ZM90.3996 15.1L80.5996 38H99.9996L90.3996 15.1Z" fill="#231815"/>
<path d="M141.4 60.2H135V3H143.3C146 3 148.7 3.2 151.2 3.6C153.7 4 155.9 4.8 157.9 6C159.8 7.2 161.4 8.8 162.6 10.8C163.8 12.8 164.3 15.5 164.3 18.7C164.3 21.9 163 26.8 160.5 29.6C157.9 32.4 154.4 34.1 150 34.5L168.2 60.2H160.4L143.1 35.1H141.5V60.2H141.4ZM141.4 29.4H143.4C145.2 29.4 147 29.3 148.7 29.1C150.4 28.9 152 28.4 153.3 27.7C154.7 27 155.8 25.9 156.6 24.6C157.4 23.3 157.9 21.5 157.9 19.2C157.9 16.9 157.5 14.9 156.7 13.6C155.9 12.2 154.8 11.2 153.5 10.5C152.2 9.8 150.6 9.4 148.9 9.2C147.2 9 145.3 8.9 143.4 8.9H141.5V29.5L141.4 29.4Z" fill="#231815"/>
<path d="M204.1 46.6L220.4 3H227.3L204.1 63.6L180.9 3H187.8L204.1 46.6Z" fill="#231815"/>
<path d="M244.1 3H273.8V8.9H250.5V25.9H273.1V31.8H250.5V54.3H273.8V60.2H244.1V3Z" fill="#231815"/>
<path d="M321.1 14.1C319.9 12.1 318.6 10.6 317.1 9.5C315.6 8.4 313.6 7.9 311.2 7.9C308.8 7.9 308.7 8.1 307.6 8.5C306.5 8.9 305.4 9.5 304.6 10.3C303.7 11.1 303 12 302.5 13.1C302 14.2 301.7 15.4 301.7 16.7C301.7 18 302 19 302.6 19.9C303.2 20.8 303.9 21.7 304.8 22.4C305.7 23.1 306.6 23.7 307.7 24.2C308.8 24.7 309.8 25.2 310.7 25.6L314.5 27.3C316.4 28.1 318.1 29 319.8 29.9C321.5 30.8 322.9 31.9 324.2 33.2C325.4 34.4 326.4 35.9 327.2 37.5C327.9 39.1 328.3 41.1 328.3 43.4C328.3 45.7 327.8 48.2 326.9 50.4C326 52.6 324.7 54.4 323 56C321.4 57.6 319.4 58.8 317.3 59.7C315.1 60.6 312.8 61.1 310.3 61.1C307.8 61.1 305.9 60.7 303.9 60C301.9 59.3 300.2 58.3 298.6 57C297.1 55.7 295.8 54.2 294.7 52.3C293.6 50.5 292.9 48.5 292.4 46.2L298.6 44.5C298.8 46 299.2 47.3 299.9 48.6C300.6 49.9 301.4 51 302.4 52C303.4 53 304.5 53.7 305.9 54.3C307.2 54.9 308.6 55.1 310.1 55.1C311.6 55.1 313.1 54.8 314.5 54.3C315.9 53.7 317.2 53 318.3 52C319.4 51 320.3 49.8 320.9 48.5C321.6 47.1 321.9 45.6 321.9 44C321.9 42.4 321.6 40.9 321 39.7C320.4 38.5 319.6 37.5 318.6 36.7C317.6 35.8 316.5 35.1 315.2 34.5C313.9 33.9 312.6 33.2 311.3 32.6L307.8 31.1C306.1 30.3 304.5 29.5 303.1 28.7C301.6 27.8 300.3 26.9 299.2 25.7C298.1 24.6 297.2 23.3 296.5 21.8C295.8 20.3 295.5 18.5 295.5 16.5C295.5 14.5 295.9 12.3 296.8 10.5C297.7 8.7 298.8 7.2 300.3 5.9C301.8 4.6 303.5 3.7 305.4 3C307.3 2.3 309.3 2 311.5 2C314.7 2 317.6 2.8 320.2 4.3C322.8 5.8 324.8 8 326.3 10.9L321.2 14.2L321.1 14.1Z" fill="#231815"/>
<path d="M363.3 60.2H356.9V8.9H343.1V3H377.3V8.9H363.3V60.2Z" fill="#231815"/>
<path d="M442.599 8.9V25.9H461.699V31.8H442.599V60.2H436.199V3H462.199V8.9H442.499H442.599Z" fill="#231815"/>
<path d="M491.4 54.3H507.2V60.2H485V3H491.4V54.3Z" fill="#231815"/>
<path d="M547.9 2C552 2 555.9 2.8 559.5 4.3C563.1 5.8 566.3 8 569 10.7C571.7 13.4 573.8 16.6 575.4 20.1C577 23.7 577.8 27.5 577.8 31.6C577.8 35.7 577 39.5 575.4 43.1C573.8 46.7 571.7 49.8 569 52.5C566.3 55.2 563.1 57.3 559.5 58.8C555.9 60.3 552 61.1 547.9 61.1C543.8 61.1 539.9 60.3 536.3 58.8C532.7 57.3 529.5 55.2 526.8 52.5C524.1 49.8 522 46.7 520.4 43.1C518.8 39.5 518 35.7 518 31.6C518 27.5 518.8 23.7 520.4 20.1C522 16.5 524.1 13.4 526.8 10.7C529.5 8 532.7 5.9 536.3 4.3C539.9 2.8 543.8 2 547.9 2ZM547.9 7.9C544.6 7.9 541.5 8.5 538.7 9.8C535.8 11 533.4 12.7 531.3 14.9C529.2 17.1 527.5 19.6 526.3 22.5C525.1 25.4 524.5 28.4 524.5 31.7C524.5 35 525.1 38 526.3 40.8C527.5 43.7 529.2 46.2 531.3 48.3C533.4 50.5 535.9 52.2 538.8 53.4C541.7 54.7 544.7 55.3 547.9 55.3C551.1 55.3 554.2 54.7 557 53.4C559.9 52.1 562.4 50.4 564.5 48.3C566.6 46.2 568.3 43.6 569.5 40.8C570.7 37.9 571.3 34.9 571.3 31.7C571.3 28.5 570.7 25.4 569.5 22.5C568.3 19.6 566.6 17.1 564.5 14.9C562.4 12.8 559.9 11.1 557.1 9.8C554.2 8.6 551.2 7.9 547.9 7.9Z" fill="#231815"/>
<path d="M608.099 45.8L626.599 0L645.099 45.8L660.099 2.9H666.999L645.099 63.1L626.599 17L608.099 63.1L586.199 2.9H593.099L608.099 45.8Z" fill="#231815"/>
</g>
<defs>
<clipPath id="clip0_210_1540">
<rect width="680" height="63.6" fill="white"/>
</clipPath>
</defs>
</svg>
