<svg width="49" height="9" viewBox="0 0 49 9" fill="none" xmlns="http://www.w3.org/2000/svg">
<path d="M48.1941 2.27413L46.3205 0.895031H39.3885L38.9375 2.27413H42.5943L40.6307 8.22747H42.1433L44.1001 2.27413H48.1941Z" fill="black"/>
<path d="M22.3258 0.895031L20.4453 2.27413H27.5371L27.995 0.895031H22.3258Z" fill="black"/>
<path d="M20.4461 2.2741L18.4824 8.22744H19.9951L21.6674 3.15481L20.4461 2.2741Z" fill="black"/>
<path d="M27.9972 0.895031L25.9502 7.10097L26.6649 7.04636L23.7297 4.85482H21.5508L25.9015 8.22747H27.0881L29.2184 1.77574L27.9972 0.895031Z" fill="black"/>
<path d="M9.59374 4.49297L11.3771 3.62593L11.9877 1.77574L10.7664 0.895031H2.60615L0.71875 2.27413H10.3084L9.80191 3.83074H5.95769L5.58299 4.95724H9.4272L8.35165 8.22747L10.1489 7.34676L10.7942 5.38734L9.5868 4.51346L9.59374 4.49297Z" fill="black"/>
<path d="M3.43162 6.82116L4.54186 3.42121L3.30672 2.51319L1.46094 8.22758H8.35137L8.80934 6.82116H3.43162Z" fill="black"/>
<path d="M14.304 1.65293L13.0827 0.772217L11.1051 6.7597L10.9316 7.28539L12.2292 8.22755H17.7111L18.1759 6.82114H12.597L14.304 1.65293Z" fill="black"/>
<path d="M30.9105 3.86485L31.1533 3.14798L29.9389 2.2741L29.2451 4.36324L30.4525 5.23028V5.23712H35.8649L35.3445 6.82103H28.4541L27.9961 8.22744H34.8795L36.6836 7.34673L37.5719 4.6568L36.4546 3.85118L30.9105 3.86485Z" fill="black"/>
<path d="M31.813 0.895031L29.9395 2.27413H38.19L38.648 0.895031H31.813Z" fill="black"/>
</svg>
